<svg width="16" height="16" viewBox="0 0 16 16" fill="none" xmlns="http://www.w3.org/2000/svg">
<path fill-rule="evenodd" clip-rule="evenodd" d="M11.5107 16C5.15352 16 -7.03335e-06 10.1643 -7.03335e-06 2.96558C-7.03335e-06 2.37069 0.0351873 1.78511 0.103347 1.21135C1.24119 9.17248 7.33907 15.2514 14.6908 15.2514C14.933 15.2514 15.1739 15.2448 15.4133 15.2318C14.1947 15.729 12.8806 16 11.5107 16Z" fill="#7459E4"/>
<path fill-rule="evenodd" clip-rule="evenodd" d="M12.4952 13.2816C6.78582 13.2816 2.15746 8.04054 2.15746 1.5754C2.15746 1.04114 2.18907 0.51524 2.25028 -3.34997e-05C3.27218 7.14981 8.74866 12.6093 15.3512 12.6093C15.5688 12.6093 15.7851 12.6034 16 12.5917C14.9056 13.0382 13.7255 13.2816 12.4952 13.2816Z" fill="#7459E4"/>
<path fill-rule="evenodd" clip-rule="evenodd" d="M12.7595 9.77555C8.55721 9.77555 5.15061 5.91801 5.15061 1.15949C5.15061 0.766226 5.17388 0.379116 5.21894 -0.000171565C5.97102 5.2624 10.0019 9.28081 14.8616 9.28081C15.0216 9.28081 15.1808 9.27646 15.3389 9.26784C14.5334 9.59645 13.6649 9.77555 12.7595 9.77555Z" fill="#7459E4"/>
</svg>
