<svg width="40" height="32" viewBox="0 0 40 32" fill="none" xmlns="http://www.w3.org/2000/svg">
<g clip-path="url(#clip0_560_2638)">
<path d="M7.30637 9.9062C6.83762 10.4625 6.08762 10.9 5.33762 10.8375C5.24387 10.0875 5.61262 9.28745 6.04387 8.79995C6.51262 8.2312 7.33137 7.82495 8.00012 7.7937C8.07512 8.5687 7.76887 9.33745 7.30637 9.9062ZM7.98762 10.9812C6.90012 10.9187 5.96887 11.6 5.45637 11.6C4.93137 11.6 4.14387 11.0125 3.28137 11.0312C2.16262 11.05 1.12512 11.6812 0.556366 12.6875C-0.618634 14.7062 0.250116 17.6875 1.38762 19.3312C1.94387 20.1437 2.60637 21.0375 3.48137 21.0062C4.31262 20.975 4.63762 20.4687 5.63762 20.4687C6.64387 20.4687 6.93762 21.0062 7.81262 20.9937C8.71887 20.975 9.28761 20.1812 9.84387 19.3687C10.4751 18.4437 10.7376 17.55 10.7501 17.5C10.7314 17.4812 9.00011 16.8187 8.98136 14.8187C8.96262 13.1437 10.3501 12.35 10.4126 12.3C9.63137 11.1375 8.41262 11.0125 7.98762 10.9812ZM14.2626 8.7187V20.9H16.1564V16.7375H18.7751C21.1689 16.7375 22.8439 15.0937 22.8439 12.7187C22.8439 10.3437 21.1939 8.7187 18.8376 8.7187H14.2626ZM16.1564 10.3125H18.3376C19.9814 10.3125 20.9189 11.1875 20.9189 12.725C20.9189 14.2625 19.9814 15.15 18.3314 15.15H16.1564V10.3125ZM26.2939 20.9937C27.4814 20.9937 28.5814 20.3937 29.0814 19.4375H29.1189V20.9H30.8689V14.8375C30.8689 13.0812 29.4626 11.9437 27.3001 11.9437C25.2939 11.9437 23.8064 13.0937 23.7501 14.6687H25.4564C25.6001 13.9187 26.2939 13.425 27.2439 13.425C28.4001 13.425 29.0501 13.9625 29.0501 14.9562V15.6312L26.6876 15.775C24.4939 15.9062 23.3064 16.8062 23.3064 18.3687C23.3126 19.9437 24.5376 20.9937 26.2939 20.9937ZM26.8064 19.55C25.8001 19.55 25.1564 19.0625 25.1564 18.325C25.1564 17.5562 25.7751 17.1125 26.9564 17.0437L29.0564 16.9125V17.6C29.0564 18.7375 28.0876 19.55 26.8064 19.55ZM33.2126 24.2125C35.0564 24.2125 35.9251 23.5062 36.6814 21.375L40.0001 12.0625H38.0751L35.8501 19.2562H35.8126L33.5876 12.0625H31.6126L34.8126 20.9312L34.6376 21.4687C34.3501 22.3812 33.8814 22.7375 33.0439 22.7375C32.8939 22.7375 32.6064 22.7187 32.4876 22.7062V24.1687C32.6001 24.1937 33.0689 24.2125 33.2126 24.2125Z" fill="#111827"/>
</g>
<defs>
<clipPath id="clip0_560_2638">
<rect width="40" height="32" fill="white"/>
</clipPath>
</defs>
</svg>
