<svg width="17" height="20" viewBox="0 0 17 20" fill="none" xmlns="http://www.w3.org/2000/svg">
<path fill-rule="evenodd" clip-rule="evenodd" d="M16.1913 6.84184C15.2015 5.60848 13.8129 4.89496 12.502 4.89496C10.7678 4.89496 10.035 5.71888 8.83192 5.71888C7.59184 5.71888 6.64888 4.89616 5.14888 4.89616C3.67552 4.89616 2.10904 5.79112 1.11592 7.32064C-0.281596 9.47152 -0.044956 13.5184 2.22112 16.967C3.0316 18.2001 4.114 19.5868 5.52928 19.6C6.78712 19.6115 7.14304 18.7977 8.84968 18.7881C10.5566 18.7787 10.8794 19.6089 12.137 19.5971C13.5522 19.5837 14.6942 18.0482 15.5042 16.8148C16.0847 15.9314 16.301 15.485 16.7519 14.4863C13.4757 13.2484 12.9489 8.61904 16.1913 6.84184Z" fill="#121933"/>
<path fill-rule="evenodd" clip-rule="evenodd" d="M11.1866 3.51714C11.8166 2.70882 12.2952 1.5669 12.1214 0.400024C11.0923 0.471064 9.88844 1.12554 9.18572 1.97922C8.5478 2.75394 8.021 3.90282 8.22596 5.01954C9.3494 5.05434 10.512 4.38306 11.1866 3.51714Z" fill="#121933"/>
</svg>
