<svg width="40" height="18" viewBox="0 0 40 18" fill="none" xmlns="http://www.w3.org/2000/svg">
<path d="M7.30637 2.9062C6.83762 3.46245 6.08762 3.89995 5.33762 3.83745C5.24387 3.08745 5.61262 2.28745 6.04387 1.79995C6.51262 1.2312 7.33137 0.824951 8.00012 0.793701C8.07512 1.5687 7.76887 2.33745 7.30637 2.9062ZM7.98762 3.9812C6.90012 3.9187 5.96887 4.59995 5.45637 4.59995C4.93137 4.59995 4.14387 4.01245 3.28137 4.0312C2.16262 4.04995 1.12512 4.6812 0.556366 5.68745C-0.618634 7.7062 0.250116 10.6875 1.38762 12.3312C1.94387 13.1437 2.60637 14.0375 3.48137 14.0062C4.31262 13.975 4.63762 13.4687 5.63762 13.4687C6.64387 13.4687 6.93762 14.0062 7.81262 13.9937C8.71887 13.975 9.28761 13.1812 9.84387 12.3687C10.4751 11.4437 10.7376 10.55 10.7501 10.5C10.7314 10.4812 9.00011 9.8187 8.98136 7.8187C8.96262 6.1437 10.3501 5.34995 10.4126 5.29995C9.63137 4.13745 8.41262 4.01245 7.98762 3.9812ZM14.2626 1.7187V13.9H16.1564V9.73745H18.7751C21.1689 9.73745 22.8439 8.0937 22.8439 5.7187C22.8439 3.3437 21.1939 1.7187 18.8376 1.7187H14.2626ZM16.1564 3.31245H18.3376C19.9814 3.31245 20.9189 4.18745 20.9189 5.72495C20.9189 7.26245 19.9814 8.14995 18.3314 8.14995H16.1564V3.31245ZM26.2939 13.9937C27.4814 13.9937 28.5814 13.3937 29.0814 12.4375H29.1189V13.9H30.8689V7.83745C30.8689 6.0812 29.4626 4.9437 27.3001 4.9437C25.2939 4.9437 23.8064 6.0937 23.7501 7.6687H25.4564C25.6001 6.9187 26.2939 6.42495 27.2439 6.42495C28.4001 6.42495 29.0501 6.96245 29.0501 7.9562V8.6312L26.6876 8.77495C24.4939 8.9062 23.3064 9.8062 23.3064 11.3687C23.3126 12.9437 24.5376 13.9937 26.2939 13.9937ZM26.8064 12.55C25.8001 12.55 25.1564 12.0625 25.1564 11.325C25.1564 10.5562 25.7751 10.1125 26.9564 10.0437L29.0564 9.91245V10.6C29.0564 11.7375 28.0876 12.55 26.8064 12.55ZM33.2126 17.2125C35.0564 17.2125 35.9251 16.5062 36.6814 14.375L40.0001 5.06245H38.0751L35.8501 12.2562H35.8126L33.5876 5.06245H31.6126L34.8126 13.9312L34.6376 14.4687C34.3501 15.3812 33.8814 15.7375 33.0439 15.7375C32.8939 15.7375 32.6064 15.7187 32.4876 15.7062V17.1687C32.6001 17.1937 33.0689 17.2125 33.2126 17.2125Z" fill="#F9FAFB"/>
</svg>
