<svg width="25" height="24" viewBox="0 0 25 24" fill="none" xmlns="http://www.w3.org/2000/svg">
<path fill-rule="evenodd" clip-rule="evenodd" d="M10.9955 4.13625C12.7612 2.3706 15.6238 2.3706 17.3895 4.13625C19.1552 5.9019 19.1552 8.76459 17.3895 10.5302L12.0562 15.8636C11.0269 16.8929 9.35811 16.8929 8.32884 15.8636C7.29957 14.8343 7.29956 13.1655 8.32884 12.1363L13.6622 6.80292C13.9551 6.51003 14.4299 6.51003 14.7228 6.80292C15.0157 7.09581 15.0157 7.57069 14.7228 7.86358L9.3895 13.1969C8.94601 13.6404 8.94601 14.3594 9.3895 14.8029C9.83299 15.2464 10.552 15.2464 10.9955 14.8029L16.3288 9.46959C17.5087 8.28972 17.5087 6.37678 16.3288 5.19691C15.149 4.01704 13.236 4.01705 12.0562 5.19691L6.72283 10.5303C4.80658 12.4465 4.80658 15.5533 6.72283 17.4696C8.63908 19.3858 11.7459 19.3858 13.6622 17.4696L18.9955 12.1363C19.2884 11.8434 19.7633 11.8434 20.0562 12.1363C20.3491 12.4291 20.3491 12.904 20.0562 13.1969L14.7228 18.5302C12.2208 21.0323 8.1642 21.0323 5.66217 18.5302C3.16014 16.0282 3.16013 11.9716 5.66217 9.46959L10.9955 4.13625Z" fill="black"/>
</svg>
