<svg width="20" height="20" viewBox="0 0 20 20" fill="none" xmlns="http://www.w3.org/2000/svg">
<path d="M18.3333 10H17.5M1.66663 10H2.49996H1.66663ZM4.99996 6.66667H3.33329C3.11228 6.66667 2.90032 6.75446 2.74404 6.91074C2.58776 7.06702 2.49996 7.27899 2.49996 7.5V12.5C2.49996 12.721 2.58776 12.933 2.74404 13.0893C2.90032 13.2455 3.11228 13.3333 3.33329 13.3333H4.99996V6.66667ZM4.99996 5.83333V14.1667C4.99996 14.3877 5.08776 14.5996 5.24404 14.7559C5.40032 14.9122 5.61228 15 5.83329 15H6.66663C6.88764 15 7.0996 14.9122 7.25588 14.7559C7.41216 14.5996 7.49996 14.3877 7.49996 14.1667V5.83333C7.49996 5.61232 7.41216 5.40036 7.25588 5.24408C7.0996 5.0878 6.88764 5 6.66663 5H5.83329C5.61228 5 5.40032 5.0878 5.24404 5.24408C5.08776 5.40036 4.99996 5.61232 4.99996 5.83333ZM7.49996 10H12.5H7.49996ZM12.5 5.83333V14.1667C12.5 14.3877 12.5878 14.5996 12.744 14.7559C12.9003 14.9122 13.1123 15 13.3333 15H14.1666C14.3876 15 14.5996 14.9122 14.7559 14.7559C14.9122 14.5996 15 14.3877 15 14.1667V5.83333C15 5.61232 14.9122 5.40036 14.7559 5.24408C14.5996 5.0878 14.3876 5 14.1666 5H13.3333C13.1123 5 12.9003 5.0878 12.744 5.24408C12.5878 5.40036 12.5 5.61232 12.5 5.83333ZM15 6.66667H16.6666C16.8876 6.66667 17.0996 6.75446 17.2559 6.91074C17.4122 7.06702 17.5 7.27899 17.5 7.5V12.5C17.5 12.721 17.4122 12.933 17.2559 13.0893C17.0996 13.2455 16.8876 13.3333 16.6666 13.3333H15V6.66667Z" stroke="black" stroke-width="1.5" stroke-linecap="round" stroke-linejoin="round"/>
</svg>
