<svg width="20" height="20" viewBox="0 0 20 20" fill="none" xmlns="http://www.w3.org/2000/svg">
<path d="M2.5 17.4999V14.1666C2.5 13.5073 2.6955 12.8629 3.06177 12.3147C3.42804 11.7665 3.94863 11.3393 4.55772 11.087C5.16681 10.8347 5.83703 10.7687 6.48363 10.8973C7.13024 11.0259 7.72418 11.3434 8.19036 11.8096C8.65653 12.2757 8.974 12.8697 9.10262 13.5163C9.23124 14.1629 9.16522 14.8331 8.91293 15.4422C8.66064 16.0513 8.2334 16.5719 7.68523 16.9382C7.13707 17.3044 6.4926 17.4999 5.83333 17.4999H2.5Z" stroke="#111827" stroke-width="1.5" stroke-linecap="round" stroke-linejoin="round"/>
<path d="M6.83337 11C7.68146 8.75416 9.12015 6.77895 10.9976 5.28287C12.875 3.78679 15.1216 2.82533 17.5 2.5C17.1747 4.87849 16.2133 7.12502 14.7172 9.00245C13.2211 10.8799 11.2459 12.3186 9.00004 13.1667" stroke="#111827" stroke-width="1.5" stroke-linecap="round" stroke-linejoin="round"/>
<path d="M8.83337 7.5C10.4527 8.24739 11.7527 9.54736 12.5 11.1667" stroke="#111827" stroke-width="1.5" stroke-linecap="round" stroke-linejoin="round"/>
</svg>
