<svg width="20" height="20" viewBox="0 0 20 20" fill="none" xmlns="http://www.w3.org/2000/svg">
<path d="M2.5 2.5L17.5 17.5" stroke="#9CA3AF" stroke-width="1.5" stroke-linecap="round" stroke-linejoin="round"/>
<path d="M8.81997 8.82251C8.50724 9.13502 8.33146 9.55897 8.3313 10.0011C8.33114 10.4432 8.50662 10.8673 8.81914 11.18C9.13165 11.4927 9.5556 11.6685 9.99771 11.6687C10.4398 11.6688 10.8639 11.4934 11.1766 11.1808" stroke="#9CA3AF" stroke-width="1.5" stroke-linecap="round" stroke-linejoin="round"/>
<path d="M7.80246 4.47083C8.51697 4.26643 9.25679 4.16403 9.99996 4.16666C13.3333 4.16666 16.1108 6.11083 18.3333 9.99999C17.685 11.1342 16.99 12.1033 16.2475 12.9067M14.4641 14.4575C13.105 15.3742 11.6183 15.8333 9.99996 15.8333C6.66663 15.8333 3.88913 13.8892 1.66663 9.99999C2.80746 8.00416 4.09413 6.52083 5.52663 5.54916" stroke="#9CA3AF" stroke-width="1.5" stroke-linecap="round" stroke-linejoin="round"/>
</svg>
