<svg width="17" height="16" viewBox="0 0 17 16" fill="none" xmlns="http://www.w3.org/2000/svg">
<path d="M6.25004 7.33333C7.7228 7.33333 8.91671 6.13943 8.91671 4.66667C8.91671 3.19391 7.7228 2 6.25004 2C4.77728 2 3.58337 3.19391 3.58337 4.66667C3.58337 6.13943 4.77728 7.33333 6.25004 7.33333Z" stroke="white" stroke-width="1.5" stroke-linecap="round" stroke-linejoin="round"/>
<path d="M2.25 14V12.6667C2.25 11.9594 2.53095 11.2811 3.03105 10.781C3.53115 10.281 4.20942 10 4.91667 10H7.58333C8.29058 10 8.96885 10.281 9.46895 10.781C9.96905 11.2811 10.25 11.9594 10.25 12.6667V14" stroke="white" stroke-width="1.5" stroke-linecap="round" stroke-linejoin="round"/>
<path d="M10.9166 2.08643C11.4902 2.23329 11.9987 2.56689 12.3617 3.03463C12.7248 3.50237 12.9219 4.07765 12.9219 4.66976C12.9219 5.26187 12.7248 5.83715 12.3617 6.30489C11.9987 6.77262 11.4902 7.10623 10.9166 7.25309" stroke="white" stroke-width="1.5" stroke-linecap="round" stroke-linejoin="round"/>
<path d="M14.25 14.0001V12.6668C14.2466 12.0782 14.0486 11.5073 13.6868 11.043C13.3251 10.5788 12.8199 10.2472 12.25 10.1001" stroke="white" stroke-width="1.5" stroke-linecap="round" stroke-linejoin="round"/>
</svg>
