<svg width="20" height="20" viewBox="0 0 20 20" fill="none" xmlns="http://www.w3.org/2000/svg">
<path d="M10 12.5C11.3807 12.5 12.5 11.3807 12.5 10C12.5 8.61929 11.3807 7.5 10 7.5C8.61929 7.5 7.5 8.61929 7.5 10C7.5 11.3807 8.61929 12.5 10 12.5Z" stroke="white" stroke-width="1.5" stroke-linecap="round" stroke-linejoin="round"/>
<path d="M10 16.6666C13.6819 16.6666 16.6667 13.6818 16.6667 9.99992C16.6667 6.31802 13.6819 3.33325 10 3.33325C6.31814 3.33325 3.33337 6.31802 3.33337 9.99992C3.33337 13.6818 6.31814 16.6666 10 16.6666Z" stroke="white" stroke-width="1.5" stroke-linecap="round" stroke-linejoin="round"/>
<path d="M1.66669 9.99996H3.33335M10 1.66663V3.33329V1.66663ZM10 16.6666V18.3333V16.6666ZM16.6667 9.99996H18.3334H16.6667Z" stroke="white" stroke-width="1.5" stroke-linecap="round" stroke-linejoin="round"/>
</svg>
