<svg width="25" height="25" viewBox="0 0 25 25" fill="none" xmlns="http://www.w3.org/2000/svg">
<path d="M18.6899 23.25H7.1099C4.3699 23.25 2.1499 21.02 2.1499 18.28V10.87C2.1499 9.50997 2.9899 7.79997 4.0699 6.95997L9.4599 2.75997C11.0799 1.49997 13.6699 1.43997 15.3499 2.61997L21.5299 6.94997C22.7199 7.77997 23.6499 9.55997 23.6499 11.01V18.29C23.6499 21.02 21.4299 23.25 18.6899 23.25ZM10.3799 3.93997L4.9899 8.13997C4.2799 8.69997 3.6499 9.96997 3.6499 10.87V18.28C3.6499 20.19 5.1999 21.75 7.1099 21.75H18.6899C20.5999 21.75 22.1499 20.2 22.1499 18.29V11.01C22.1499 10.05 21.4599 8.71997 20.6699 8.17997L14.4899 3.84997C13.3499 3.04997 11.4699 3.08997 10.3799 3.93997Z" fill="#9CA3AF"/>
<path d="M12.8999 19.25C12.4899 19.25 12.1499 18.91 12.1499 18.5V15.5C12.1499 15.09 12.4899 14.75 12.8999 14.75C13.3099 14.75 13.6499 15.09 13.6499 15.5V18.5C13.6499 18.91 13.3099 19.25 12.8999 19.25Z" fill="#9CA3AF"/>
</svg>
