<svg width="25" height="25" viewBox="0 0 25 25" fill="none" xmlns="http://www.w3.org/2000/svg">
<path d="M20.9399 7.32006L15.1799 3.29006C13.6099 2.19006 11.1999 2.25006 9.68989 3.42006L4.67989 7.33006C3.67989 8.11006 2.88989 9.71006 2.88989 10.9701V17.8701C2.88989 20.4201 4.95989 22.5001 7.50989 22.5001H18.2899C20.8399 22.5001 22.9099 20.4301 22.9099 17.8801V11.1001C22.9099 9.75006 22.0399 8.09006 20.9399 7.32006ZM13.6499 18.5001C13.6499 18.9101 13.3099 19.2501 12.8999 19.2501C12.4899 19.2501 12.1499 18.9101 12.1499 18.5001V15.5001C12.1499 15.0901 12.4899 14.7501 12.8999 14.7501C13.3099 14.7501 13.6499 15.0901 13.6499 15.5001V18.5001Z" fill="#5130DD"/>
</svg>
