<svg width="25" height="24" viewBox="0 0 25 24" fill="none" xmlns="http://www.w3.org/2000/svg">
<rect x="1.625" y="1.5" width="21" height="21" rx="6" fill="url(#paint0_radial_457_4371)"/>
<rect x="1.625" y="1.5" width="21" height="21" rx="6" fill="url(#paint1_radial_457_4371)"/>
<rect x="1.625" y="1.5" width="21" height="21" rx="6" fill="url(#paint2_radial_457_4371)"/>
<path d="M17.375 7.875C17.375 8.49632 16.8713 9 16.25 9C15.6287 9 15.125 8.49632 15.125 7.875C15.125 7.25368 15.6287 6.75 16.25 6.75C16.8713 6.75 17.375 7.25368 17.375 7.875Z" fill="white"/>
<path fill-rule="evenodd" clip-rule="evenodd" d="M12.125 15.75C14.1961 15.75 15.875 14.0711 15.875 12C15.875 9.92893 14.1961 8.25 12.125 8.25C10.0539 8.25 8.375 9.92893 8.375 12C8.375 14.0711 10.0539 15.75 12.125 15.75ZM12.125 14.25C13.3676 14.25 14.375 13.2426 14.375 12C14.375 10.7574 13.3676 9.75 12.125 9.75C10.8824 9.75 9.875 10.7574 9.875 12C9.875 13.2426 10.8824 14.25 12.125 14.25Z" fill="white"/>
<path fill-rule="evenodd" clip-rule="evenodd" d="M4.625 11.7C4.625 9.17976 4.625 7.91965 5.11547 6.95704C5.5469 6.11031 6.23531 5.4219 7.08204 4.99047C8.04465 4.5 9.30476 4.5 11.825 4.5H12.425C14.9452 4.5 16.2054 4.5 17.168 4.99047C18.0147 5.4219 18.7031 6.11031 19.1345 6.95704C19.625 7.91965 19.625 9.17976 19.625 11.7V12.3C19.625 14.8202 19.625 16.0804 19.1345 17.043C18.7031 17.8897 18.0147 18.5781 17.168 19.0095C16.2054 19.5 14.9452 19.5 12.425 19.5H11.825C9.30476 19.5 8.04465 19.5 7.08204 19.0095C6.23531 18.5781 5.5469 17.8897 5.11547 17.043C4.625 16.0804 4.625 14.8202 4.625 12.3V11.7ZM11.825 6H12.425C13.7099 6 14.5833 6.00117 15.2584 6.05633C15.9161 6.11006 16.2524 6.20745 16.487 6.32698C17.0515 6.6146 17.5104 7.07354 17.798 7.63803C17.9176 7.87263 18.0149 8.20893 18.0687 8.86656C18.1238 9.54169 18.125 10.4151 18.125 11.7V12.3C18.125 13.5849 18.1238 14.4583 18.0687 15.1334C18.0149 15.7911 17.9176 16.1274 17.798 16.362C17.5104 16.9265 17.0515 17.3854 16.487 17.673C16.2524 17.7926 15.9161 17.8899 15.2584 17.9437C14.5833 17.9988 13.7099 18 12.425 18H11.825C10.5401 18 9.66669 17.9988 8.99156 17.9437C8.33393 17.8899 7.99763 17.7926 7.76303 17.673C7.19854 17.3854 6.7396 16.9265 6.45198 16.362C6.33245 16.1274 6.23506 15.7911 6.18133 15.1334C6.12617 14.4583 6.125 13.5849 6.125 12.3V11.7C6.125 10.4151 6.12617 9.54169 6.18133 8.86656C6.23506 8.20893 6.33245 7.87263 6.45198 7.63803C6.7396 7.07354 7.19854 6.6146 7.76303 6.32698C7.99763 6.20745 8.33393 6.11006 8.99156 6.05633C9.66669 6.00117 10.5401 6 11.825 6Z" fill="white"/>
<defs>
<radialGradient id="paint0_radial_457_4371" cx="0" cy="0" r="1" gradientUnits="userSpaceOnUse" gradientTransform="translate(9.125 17.25) rotate(-55.3758) scale(19.1397)">
<stop stop-color="#B13589"/>
<stop offset="0.79309" stop-color="#C62F94"/>
<stop offset="1" stop-color="#8A3AC8"/>
</radialGradient>
<radialGradient id="paint1_radial_457_4371" cx="0" cy="0" r="1" gradientUnits="userSpaceOnUse" gradientTransform="translate(8.375 23.25) rotate(-65.1363) scale(16.9457)">
<stop stop-color="#E0E8B7"/>
<stop offset="0.444662" stop-color="#FB8A2E"/>
<stop offset="0.71474" stop-color="#E2425C"/>
<stop offset="1" stop-color="#E2425C" stop-opacity="0"/>
</radialGradient>
<radialGradient id="paint2_radial_457_4371" cx="0" cy="0" r="1" gradientUnits="userSpaceOnUse" gradientTransform="translate(0.500001 2.25) rotate(-8.1301) scale(29.1682 6.23877)">
<stop offset="0.156701" stop-color="#406ADC"/>
<stop offset="0.467799" stop-color="#6A45BE"/>
<stop offset="1" stop-color="#6A45BE" stop-opacity="0"/>
</radialGradient>
</defs>
</svg>
