<svg width="12" height="12" viewBox="0 0 12 12" fill="none" xmlns="http://www.w3.org/2000/svg">
<g clip-path="url(#clip0_2471_9070)">
<path d="M11.4057 2.72066C11.018 2.89245 10.6015 3.00852 10.1637 3.06098C10.6154 2.79067 10.9534 2.36524 11.1146 1.86406C10.6901 2.11616 10.2256 2.29361 9.7412 2.3887C9.41545 2.04089 8.98398 1.81035 8.51378 1.73288C8.04358 1.65542 7.56096 1.73535 7.14085 1.96028C6.72073 2.18521 6.38663 2.54255 6.19041 2.97681C5.9942 3.41108 5.94684 3.89798 6.0557 4.36191C5.1957 4.31873 4.35438 4.0952 3.58636 3.70583C2.81834 3.31646 2.14077 2.76995 1.59763 2.10177C1.41192 2.42213 1.30513 2.79356 1.30513 3.18913C1.30492 3.54523 1.39262 3.89588 1.56043 4.20997C1.72824 4.52405 1.97099 4.79186 2.26713 4.98963C1.92369 4.9787 1.58782 4.8859 1.28749 4.71895V4.7468C1.28745 5.24626 1.46022 5.73034 1.77646 6.11691C2.09271 6.50348 2.53297 6.76874 3.02252 6.86766C2.70392 6.95389 2.36989 6.96659 2.04567 6.9048C2.18379 7.33455 2.45284 7.71035 2.81516 7.97959C3.17747 8.24883 3.61491 8.39803 4.06624 8.4063C3.30009 9.00774 2.3539 9.33399 1.37988 9.33255C1.20734 9.3326 1.03495 9.32252 0.863594 9.30237C1.85228 9.93806 3.00318 10.2754 4.17859 10.2741C8.15752 10.2741 10.3327 6.97863 10.3327 4.12048C10.3327 4.02763 10.3304 3.93384 10.3262 3.84098C10.7493 3.53501 11.1145 3.15611 11.4047 2.72206L11.4057 2.72066Z" fill="#9CA3AF"/>
</g>
<defs>
<clipPath id="clip0_2471_9070">
<rect width="11.1429" height="11.1429" fill="white" transform="translate(0.428562 0.428711)"/>
</clipPath>
</defs>
</svg>
