<svg width="12" height="12" viewBox="0 0 12 12" fill="none" xmlns="http://www.w3.org/2000/svg">
<g clip-path="url(#clip0_2471_9077)">
<path d="M8.12599 3.91057C7.81277 1.9671 7.07401 0.602539 6.21427 0.602539C5.35454 0.602539 4.61577 1.9671 4.30255 3.91057H8.12599ZM4.14054 5.99986C4.14054 6.48301 4.16646 6.94657 4.21182 7.39271H8.21456C8.25992 6.94657 8.28584 6.48301 8.28584 5.99986C8.28584 5.51671 8.25992 5.05315 8.21456 4.607H4.21182C4.16646 5.05315 4.14054 5.51671 4.14054 5.99986ZM11.1545 3.91057C10.5367 2.43284 9.28599 1.29026 7.74149 0.828878C8.26856 1.56448 8.63147 2.67224 8.82156 3.91057H11.1545ZM4.68489 0.828878C3.14256 1.29026 1.88968 2.43284 1.27404 3.91057H3.60699C3.79492 2.67224 4.15782 1.56448 4.68489 0.828878ZM11.3856 4.607H8.90796C8.95333 5.06403 8.97925 5.53195 8.97925 5.99986C8.97925 6.46777 8.95333 6.93568 8.90796 7.39271H11.3835C11.5023 6.94657 11.5693 6.48301 11.5693 5.99986C11.5693 5.51671 11.5023 5.05315 11.3856 4.607ZM3.4493 5.99986C3.4493 5.53195 3.47522 5.06403 3.52058 4.607H1.0429C0.926256 5.05315 0.857132 5.51671 0.857132 5.99986C0.857132 6.48301 0.926256 6.94657 1.0429 7.39271H3.51842C3.47522 6.93568 3.4493 6.46777 3.4493 5.99986ZM4.30255 8.08914C4.61577 10.0326 5.35454 11.3972 6.21427 11.3972C7.07401 11.3972 7.81277 10.0326 8.12599 8.08914H4.30255ZM7.74365 11.1708C9.28599 10.7095 10.5389 9.56688 11.1567 8.08914H8.82372C8.63363 9.32748 8.27072 10.4352 7.74365 11.1708ZM1.27404 8.08914C1.89184 9.56688 3.14256 10.7095 4.68706 11.1708C4.15998 10.4352 3.79708 9.32748 3.60699 8.08914H1.27404Z" fill="#9CA3AF"/>
</g>
<defs>
<clipPath id="clip0_2471_9077">
<rect width="10.7143" height="11.1429" fill="white" transform="translate(0.857124 0.428467)"/>
</clipPath>
</defs>
</svg>
