<svg width="12" height="12" viewBox="0 0 12 12" fill="none" xmlns="http://www.w3.org/2000/svg">
<path d="M10.4735 4.15248C10.4685 3.77379 10.3976 3.39887 10.264 3.04448C10.1482 2.74555 9.9713 2.47408 9.74462 2.24739C9.51793 2.02071 9.24646 1.8438 8.94753 1.72798C8.5977 1.59666 8.22812 1.52565 7.85453 1.51798C7.37353 1.49648 7.22103 1.49048 6.00003 1.49048C4.77903 1.49048 4.62253 1.49048 4.14503 1.51798C3.77161 1.52571 3.40221 1.59671 3.05253 1.72798C2.75356 1.84372 2.48205 2.0206 2.25535 2.24729C2.02866 2.47399 1.85178 2.74551 1.73604 3.04448C1.60445 3.39404 1.5336 3.76353 1.52654 4.13698C1.50504 4.61848 1.49854 4.77098 1.49854 5.99198C1.49854 7.21298 1.49854 7.36898 1.52654 7.84698C1.53404 8.22098 1.60454 8.58998 1.73604 8.94048C1.85197 9.23936 2.02898 9.51077 2.25575 9.73736C2.48252 9.96396 2.75407 10.1408 3.05303 10.2565C3.40175 10.3931 3.77122 10.4692 4.14553 10.4815C4.62703 10.503 4.77953 10.5095 6.00053 10.5095C7.22153 10.5095 7.37803 10.5095 7.85553 10.4815C8.22911 10.4741 8.59871 10.4033 8.94853 10.272C9.24738 10.156 9.51879 9.97906 9.74545 9.7524C9.97212 9.52573 10.1491 9.25432 10.265 8.95547C10.3965 8.60548 10.467 8.23648 10.4745 7.86198C10.496 7.38098 10.5025 7.22848 10.5025 6.00698C10.5015 4.78598 10.5015 4.63098 10.4735 4.15248ZM5.99703 8.30098C4.72003 8.30098 3.68553 7.26648 3.68553 5.98948C3.68553 4.71248 4.72003 3.67798 5.99703 3.67798C6.61008 3.67798 7.19802 3.92151 7.63151 4.355C8.065 4.78849 8.30853 5.37643 8.30853 5.98948C8.30853 6.60252 8.065 7.19046 7.63151 7.62395C7.19802 8.05744 6.61008 8.30098 5.99703 8.30098ZM8.40053 4.13148C8.32973 4.13154 8.25961 4.11765 8.19419 4.09058C8.12876 4.06352 8.06932 4.02382 8.01926 3.97375C7.96919 3.92369 7.92949 3.86425 7.90243 3.79882C7.87536 3.7334 7.86147 3.66328 7.86153 3.59248C7.86153 3.52173 7.87547 3.45167 7.90254 3.38631C7.92962 3.32094 7.9693 3.26155 8.01933 3.21152C8.06936 3.1615 8.12875 3.12181 8.19411 3.09474C8.25948 3.06766 8.32953 3.05373 8.40028 3.05373C8.47103 3.05373 8.54109 3.06766 8.60645 3.09474C8.67182 3.12181 8.73121 3.1615 8.78124 3.21152C8.83126 3.26155 8.87095 3.32094 8.89802 3.38631C8.9251 3.45167 8.93903 3.52173 8.93903 3.59248C8.93903 3.89048 8.69803 4.13148 8.40053 4.13148Z" fill="#9CA3AF"/>
<path d="M5.99704 7.49104C6.8263 7.49104 7.49854 6.81879 7.49854 5.98954C7.49854 5.16028 6.8263 4.48804 5.99704 4.48804C5.16778 4.48804 4.49554 5.16028 4.49554 5.98954C4.49554 6.81879 5.16778 7.49104 5.99704 7.49104Z" fill="#9CA3AF"/>
</svg>
