<svg width="16" height="18" viewBox="0 0 16 18" fill="none" xmlns="http://www.w3.org/2000/svg">
<path d="M8 10.6666C9.38071 10.6666 10.5 9.54734 10.5 8.16663C10.5 6.78591 9.38071 5.66663 8 5.66663C6.61929 5.66663 5.5 6.78591 5.5 8.16663C5.5 9.54734 6.61929 10.6666 8 10.6666Z" stroke="#5130DD" stroke-width="1.5" stroke-linecap="round" stroke-linejoin="round"/>
<path d="M12.7141 12.8808L9.17832 16.4167C8.8658 16.7289 8.44214 16.9042 8.0004 16.9042C7.55866 16.9042 7.13499 16.7289 6.82248 16.4167L3.28582 12.8808C2.3535 11.9485 1.7186 10.7606 1.46139 9.46739C1.20418 8.17419 1.33622 6.83376 1.84082 5.61561C2.34541 4.39745 3.1999 3.35628 4.29622 2.62376C5.39254 1.89123 6.68146 1.50024 7.99998 1.50024C9.31851 1.50024 10.6074 1.89123 11.7037 2.62376C12.8001 3.35628 13.6546 4.39745 14.1591 5.61561C14.6637 6.83376 14.7958 8.17419 14.5386 9.46739C14.2814 10.7606 13.6465 11.9485 12.7141 12.8808V12.8808Z" stroke="#5130DD" stroke-width="1.5" stroke-linecap="round" stroke-linejoin="round"/>
</svg>
