<svg width="16" height="16" viewBox="0 0 16 16" fill="none" xmlns="http://www.w3.org/2000/svg">
<path d="M11.7713 11.1047L8.94263 13.9334C8.69262 14.1831 8.35368 14.3234 8.0003 14.3234C7.64691 14.3234 7.30797 14.1831 7.05796 13.9334L4.22863 11.1047C3.48278 10.3588 2.97485 9.40852 2.76909 8.37396C2.56332 7.3394 2.66896 6.26706 3.07263 5.29254C3.47631 4.31801 4.15989 3.48508 5.03695 2.89905C5.91401 2.31303 6.94514 2.00024 7.99996 2.00024C9.05478 2.00024 10.0859 2.31303 10.963 2.89905C11.84 3.48508 12.5236 4.31801 12.9273 5.29254C13.331 6.26706 13.4366 7.3394 13.2308 8.37396C13.0251 9.40852 12.5171 10.3588 11.7713 11.1047Z" fill="#9CA3AF" stroke="#9CA3AF" stroke-width="1.5" stroke-linecap="round" stroke-linejoin="round"/>
<path d="M8 9.3335C9.10457 9.3335 10 8.43807 10 7.3335C10 6.22893 9.10457 5.3335 8 5.3335C6.89543 5.3335 6 6.22893 6 7.3335C6 8.43807 6.89543 9.3335 8 9.3335Z" fill="white"/>
</svg>
