<svg width="14" height="15" viewBox="0 0 14 15" fill="none" xmlns="http://www.w3.org/2000/svg">
<path d="M10.7714 10.1047L7.94275 12.9334C7.69274 13.1831 7.35381 13.3234 7.00042 13.3234C6.64703 13.3234 6.30809 13.1831 6.05808 12.9334L3.22875 10.1047C2.4829 9.35882 1.97497 8.40852 1.76921 7.37396C1.56344 6.3394 1.66908 5.26706 2.07275 4.29254C2.47643 3.31801 3.16002 2.48508 4.03707 1.89905C4.91413 1.31303 5.94526 1.00024 7.00008 1.00024C8.05491 1.00024 9.08604 1.31303 9.9631 1.89905C10.8402 2.48508 11.5237 3.31801 11.9274 4.29254C12.3311 5.26706 12.4367 6.3394 12.231 7.37396C12.0252 8.40852 11.5173 9.35882 10.7714 10.1047Z" fill="#9CA3AF" stroke="#9CA3AF" stroke-width="1.5" stroke-linecap="round" stroke-linejoin="round"/>
<path d="M7 8.3335C8.10457 8.3335 9 7.43807 9 6.3335C9 5.22893 8.10457 4.3335 7 4.3335C5.89543 4.3335 5 5.22893 5 6.3335C5 7.43807 5.89543 8.3335 7 8.3335Z" fill="white"/>
</svg>
