<svg width="23" height="16" viewBox="0 0 23 16" fill="none" xmlns="http://www.w3.org/2000/svg">
<g clip-path="url(#clip0_457_4383)">
<path d="M5.62606 15.9213V7.7215L2.9904 5.39503L0.626953 4.104V14.4742C0.626953 15.2749 1.29929 15.9213 2.12672 15.9213H5.62606Z" fill="#4285F4"/>
<path d="M17.6239 15.9212H21.1232C21.9532 15.9212 22.623 15.2724 22.623 14.4742V4.104L19.946 5.58272L17.6239 7.72141V15.9212Z" fill="#34A853"/>
<path d="M5.62609 7.72151L5.26746 4.51762L5.62609 1.45117L11.625 5.79223L17.6239 1.45117L18.025 4.35206L17.6239 7.72151L11.625 12.0626L5.62609 7.72151Z" fill="#EA4335"/>
<path d="M17.6239 1.45108V7.72143L22.623 4.10393V2.17457C22.623 0.385135 20.5059 -0.634969 19.0237 0.438192L17.6239 1.45108Z" fill="#FBBC04"/>
<path d="M0.627075 4.10397L2.92626 5.7678L5.62618 7.72146V1.45112L4.22634 0.43823C2.74161 -0.635013 0.627075 0.385173 0.627075 2.17452V4.10389V4.10397Z" fill="#C5221F"/>
</g>
<defs>
<clipPath id="clip0_457_4383">
<rect width="22" height="16" fill="white" transform="translate(0.625)"/>
</clipPath>
</defs>
</svg>
