<svg width="26" height="26" viewBox="0 0 26 26" fill="none" xmlns="http://www.w3.org/2000/svg">
<path fill-rule="evenodd" clip-rule="evenodd" d="M18.7052 26.0006C8.37468 26.0006 0.000111341 16.518 0.000111341 4.82056C0.000111341 3.85402 0.0572884 2.90261 0.168021 1.97041C2.01711 14.9066 11.9262 24.7843 23.8729 24.7843C24.2664 24.7843 24.6577 24.7736 25.0466 24.7524C23.0664 25.5603 20.9312 26.0006 18.7052 26.0006Z" fill="#7459E4"/>
<path fill-rule="evenodd" clip-rule="evenodd" d="M20.3046 21.5829C11.0268 21.5829 3.50562 13.0666 3.50562 2.56126C3.50562 1.69255 3.55704 0.837448 3.65664 -0.000365578C5.31659 11.6185 14.2163 20.4907 24.9461 20.4907C25.2994 20.4907 25.6506 20.4811 25.9997 20.462C24.2213 21.1875 22.3038 21.5829 20.3046 21.5829Z" fill="#7459E4"/>
<path fill-rule="evenodd" clip-rule="evenodd" d="M20.7344 15.8862C13.9057 15.8862 8.36987 9.61802 8.36987 1.88577C8.36987 1.24677 8.40768 0.61776 8.4809 0.00146441C9.70313 8.55264 16.2533 15.0822 24.1504 15.0822C24.4106 15.0822 24.6694 15.0751 24.9265 15.061C23.6175 15.5952 22.206 15.8862 20.7344 15.8862Z" fill="#7459E4"/>
</svg>
