<svg width="14" height="14" viewBox="0 0 14 14" fill="none" xmlns="http://www.w3.org/2000/svg">
<path d="M9.41667 7.00021V7.00688M0.75 12.3335L1.61667 9.73355C0.86763 8.62573 0.596662 7.31383 0.854146 6.04175C1.11163 4.76968 1.88004 3.624 3.01651 2.81773C4.15298 2.01147 5.58017 1.59948 7.03273 1.65838C8.48528 1.71727 9.86435 2.24304 10.9135 3.13792C11.9627 4.03281 12.6106 5.23591 12.7367 6.52354C12.8628 7.81117 12.4586 9.0957 11.5992 10.1383C10.7399 11.1809 9.48377 11.9106 8.06453 12.1918C6.64529 12.4729 5.15947 12.2864 3.88333 11.6669L0.75 12.3335ZM6.75 7.00021V7.00688V7.00021ZM4.08333 7.00021V7.00688V7.00021Z" stroke="#5130DD" stroke-width="1.5" stroke-linecap="round" stroke-linejoin="round"/>
</svg>
