<svg width="17" height="16" viewBox="0 0 17 16" fill="none" xmlns="http://www.w3.org/2000/svg">
<path d="M11.4167 7.99997V8.00664M2.75 13.3333L3.61667 10.7333C2.86763 9.62549 2.59666 8.31358 2.85415 7.04151C3.11163 5.76943 3.88004 4.62375 5.01651 3.81749C6.15298 3.01122 7.58017 2.59924 9.03273 2.65813C10.4853 2.71703 11.8643 3.24279 12.9135 4.13768C13.9627 5.03256 14.6106 6.23567 14.7367 7.52329C14.8628 8.81092 14.4586 10.0955 13.5992 11.1381C12.7399 12.1807 11.4838 12.9104 10.0645 13.1915C8.64529 13.4727 7.15947 13.2862 5.88333 12.6666L2.75 13.3333ZM8.75 7.99997V8.00664V7.99997ZM6.08333 7.99997V8.00664V7.99997Z" stroke="#5130DD" stroke-width="1.5" stroke-linecap="round" stroke-linejoin="round"/>
</svg>
