<svg width="14" height="20" viewBox="0 0 14 20" fill="none" xmlns="http://www.w3.org/2000/svg">
<path fill-rule="evenodd" clip-rule="evenodd" d="M6.75537 0C4.54623 0 2.75537 1.79086 2.75537 4V10C2.75537 12.2091 4.54623 14 6.75537 14C8.96451 14 10.7554 12.2091 10.7554 10V4C10.7554 1.79086 8.96451 0 6.75537 0ZM0.755371 8.25C1.16958 8.25 1.50537 8.58579 1.50537 9V10C1.50537 12.8995 3.85588 15.25 6.75537 15.25C9.65487 15.25 12.0054 12.8995 12.0054 10V9C12.0054 8.58579 12.3412 8.25 12.7554 8.25C13.1696 8.25 13.5054 8.58579 13.5054 9V10C13.5054 13.4744 10.8803 16.3357 7.50537 16.7088V18.5H9.75537C10.1696 18.5 10.5054 18.8358 10.5054 19.25C10.5054 19.6642 10.1696 20 9.75537 20H3.75537C3.34116 20 3.00537 19.6642 3.00537 19.25C3.00537 18.8358 3.34116 18.5 3.75537 18.5H6.00537V16.7088C2.63041 16.3357 0.00537109 13.4744 0.00537109 10V9C0.00537109 8.58579 0.341158 8.25 0.755371 8.25Z" fill="white"/>
</svg>
