<svg width="57" height="20" viewBox="0 0 57 20" fill="none" xmlns="http://www.w3.org/2000/svg">
<g clip-path="url(#clip0_560_4075)">
<path d="M14.5731 1.74254C14.6428 3.31846 16.0095 9.33227 16.0095 9.33227C16.5116 10.5503 16.944 9.33227 16.944 9.33227C18.5974 4.39174 15.2186 1.52864 15.2186 1.52864C14.3561 1.02638 14.5731 1.74254 14.5731 1.74254ZM34.1911 0.883911C34.1911 0.883911 35.8453 2.02938 34.1911 2.24404C34.1911 2.24404 28.0105 2.95981 23.4115 7.25713C23.4115 7.25713 16.5116 13.2698 13.9252 19.8577C13.9252 19.8577 13.0627 19.8577 13.3513 18.5693C13.6385 17.2806 15.3624 11.6236 23.0511 4.67935C23.0511 4.67935 30.4554 -2.05176 34.1911 0.883911Z" fill="#FF4600"/>
<path d="M2.7478 10.4161C3.02082 10.4735 3.266 10.5016 3.62596 10.5016C5.03567 10.5016 5.98551 9.59813 5.98551 8.45076C5.98551 7.41851 5.25187 7.04618 4.30279 7.04618C3.88449 7.04618 3.568 7.07505 3.36667 7.13166L2.7478 10.4161ZM1.9562 5.94174C2.54647 5.79775 3.42463 5.71227 4.28792 5.71227C5.19506 5.71227 6.1449 5.89805 6.77788 6.40069C7.33917 6.83076 7.67015 7.46068 7.67015 8.32234C7.67015 9.46895 7.12296 10.402 6.43203 10.9465C5.6553 11.5631 4.54606 11.8644 3.39489 11.8644C3.04904 11.8644 2.7478 11.8207 2.48851 11.7926L1.78308 15.4497H0.143066L1.9562 5.94174Z" fill="#111827"/>
<path d="M12.1164 9.66949C11.9441 9.6258 11.7287 9.59806 11.4263 9.59806C9.88616 9.59806 8.67702 11.3339 8.67702 12.9258C8.67702 13.656 8.95042 14.259 9.68483 14.259C10.4757 14.259 11.4263 13.2845 11.7573 11.5057L12.1164 9.66949ZM11.4404 15.4496C11.4404 15.0329 11.4976 14.4744 11.5559 13.8855H11.5269C10.8364 15.1628 9.90027 15.6069 9.008 15.6069C7.75616 15.6069 6.93481 14.6317 6.93481 13.2267C6.93481 10.8461 8.60458 8.30746 11.872 8.30746C12.6347 8.30746 13.4552 8.45069 14.0024 8.6228L13.2684 12.2655C13.0663 13.2978 12.9515 14.6176 12.9805 15.4496H11.4404Z" fill="#111827"/>
<path d="M23.5278 12.6817C23.5278 13.6413 24.0316 14.3172 24.8952 14.3172C26.1475 14.3172 26.9825 12.5954 26.9825 11.2045C26.9825 10.4868 26.6508 9.59782 25.6441 9.59782C24.3053 9.59782 23.5278 11.3766 23.5278 12.6817ZM28.7095 11.1908C28.7095 13.5707 27.0538 15.6067 24.6653 15.6067C22.8941 15.6067 21.8013 14.3879 21.8013 12.7238C21.8013 10.3584 23.4562 8.3076 25.8455 8.3076C27.7307 8.3076 28.7095 9.65557 28.7095 11.1908Z" fill="#111827"/>
<path d="M29.0249 15.4497L29.932 10.6308C30.1044 9.79873 30.2051 9.06737 30.2916 8.46557H31.7894L31.6308 9.71324H31.659C32.3061 8.78053 33.1991 8.30753 34.1779 8.30753C35.185 8.30753 35.9625 8.91046 35.9625 10.2296C35.9625 10.5445 35.906 11.032 35.8336 11.3765L35.0694 15.4497H33.3856L34.1333 11.5057C34.1779 11.2478 34.2206 10.9465 34.2206 10.6737C34.2206 10.0856 34.0048 9.66955 33.3429 9.66955C32.5802 9.66955 31.601 10.5871 31.299 12.223L30.6947 15.4497H29.0249Z" fill="#111827"/>
<path d="M40.4225 9.55513C39.3712 9.55513 38.6811 10.4871 38.4797 11.3339C40.2063 11.348 41.3156 11.1185 41.3156 10.2728C41.3156 9.8283 40.9556 9.55513 40.4225 9.55513ZM42.0202 15.0477C41.3289 15.406 40.3943 15.6069 39.5444 15.6069C37.6031 15.6069 36.667 14.4174 36.667 12.7104C36.667 10.6022 38.2205 8.30785 40.6387 8.30785C42.0202 8.30785 42.8984 9.09619 42.8984 10.2728C42.8984 12.0649 41.0136 12.6382 38.3078 12.5812C38.2784 12.8248 38.336 13.2978 38.4946 13.5705C38.7684 14.0443 39.2706 14.2878 39.9337 14.2878C40.726 14.2878 41.3583 14.0869 41.8635 13.8289L42.0202 15.0477Z" fill="#111827"/>
<path d="M46.9413 9.55513C45.8912 9.55513 45.1999 10.4871 44.9985 11.3339C46.7251 11.348 47.8343 11.1185 47.8343 10.2728C47.8343 9.8283 47.4744 9.55513 46.9413 9.55513ZM48.539 15.0477C47.8488 15.406 46.9131 15.6069 46.0647 15.6069C44.1219 15.6069 43.1858 14.4174 43.1858 12.7104C43.1858 10.6022 44.7393 8.30785 47.1575 8.30785C48.539 8.30785 49.4187 9.09619 49.4187 10.2728C49.4187 12.0649 47.5324 12.6382 44.8266 12.5812C44.7968 12.8248 44.8548 13.2978 45.0134 13.5705C45.2872 14.0443 45.7905 14.2878 46.4525 14.2878C47.2448 14.2878 47.8771 14.0869 48.3823 13.8289L48.539 15.0477Z" fill="#111827"/>
<path d="M49.5181 15.4497L50.3383 11.1471C50.5251 10.1578 50.6258 9.08219 50.6967 8.46557H52.151C52.1079 8.93858 52.0652 9.42602 51.9928 9.92866H52.0355C52.5125 8.99595 53.2736 8.30753 54.2242 8.30753C54.3546 8.30753 54.4835 8.32234 54.599 8.32234L54.2673 9.95715C54.1811 9.94234 54.066 9.94234 53.9504 9.94234C52.755 9.94234 51.9928 11.1471 51.7201 12.6383L51.1871 15.4497H49.5181Z" fill="#111827"/>
<path d="M55.8723 9.10446H55.9951C56.1209 9.10446 56.2041 9.03456 56.2041 8.92894C56.2041 8.81002 56.1167 8.75797 55.9909 8.75797C55.9329 8.75797 55.8918 8.76215 55.8723 8.76671V9.10446ZM55.7522 8.68313C55.8132 8.67211 55.9005 8.66413 55.9817 8.66413C56.1091 8.66413 56.1938 8.68997 56.2498 8.74012C56.2959 8.78077 56.3226 8.84421 56.3226 8.91716C56.3226 9.03722 56.2468 9.11852 56.1491 9.15081V9.15537C56.2201 9.17969 56.2616 9.24617 56.2853 9.34191C56.315 9.46957 56.3371 9.55961 56.3566 9.5957H56.2323C56.2174 9.56759 56.1964 9.4897 56.1728 9.37459C56.1446 9.24693 56.0931 9.19982 55.9848 9.19526H55.8723V9.5957H55.7522V8.68313Z" fill="#111827"/>
<path d="M56.0278 8.30765C55.5703 8.30765 55.1985 8.67807 55.1985 9.13398C55.1985 9.58989 55.5703 9.96069 56.0278 9.96069C56.4854 9.96069 56.8572 9.58989 56.8572 9.13398C56.8572 8.67807 56.4854 8.30765 56.0278 8.30765ZM56.0278 8.4353C56.4145 8.4353 56.7283 8.74722 56.7283 9.13398C56.7283 9.52036 56.4145 9.83342 56.0278 9.83342C55.64 9.83342 55.3258 9.52036 55.3258 9.13398C55.3258 8.74722 55.64 8.4353 56.0278 8.4353Z" fill="#111827"/>
</g>
<defs>
<clipPath id="clip0_560_4075">
<rect width="57" height="20" fill="white"/>
</clipPath>
</defs>
</svg>
