<svg width="17" height="20" viewBox="0 0 17 20" fill="none" xmlns="http://www.w3.org/2000/svg">
<path d="M4.8646 19.322L5.21122 17.1204L4.43911 17.1025H0.752197L3.31441 0.856333C3.32204 0.806693 3.34725 0.761448 3.38545 0.728844C3.42365 0.69624 3.4723 0.678449 3.52252 0.678714H9.73917C11.803 0.678714 13.2273 1.10818 13.9709 1.95585C14.3195 2.3535 14.5415 2.76905 14.6489 3.22635C14.7615 3.70618 14.7635 4.27947 14.6535 4.97868L14.6456 5.02971V5.47773L14.9942 5.67523C15.2603 5.81006 15.4995 5.99245 15.7 6.21339C15.9982 6.55339 16.1911 6.9855 16.2726 7.49781C16.3568 8.0247 16.329 8.65167 16.1911 9.36148C16.032 10.178 15.7749 10.8891 15.4276 11.471C15.1212 11.9923 14.7092 12.4438 14.2181 12.7965C13.7568 13.124 13.2087 13.3725 12.589 13.5315C11.9886 13.688 11.3039 13.7668 10.553 13.7668H10.0692C9.72327 13.7668 9.38725 13.8914 9.12347 14.1148C8.86007 14.3405 8.68533 14.6524 8.63038 14.9949L8.59393 15.1931L7.98154 19.0735L7.95371 19.216C7.94642 19.2611 7.93382 19.2836 7.91527 19.2989C7.89729 19.3136 7.87486 19.3217 7.85164 19.322H4.8646Z" fill="#253B80"/>
<path d="M15.3242 5.0813C15.3057 5.19993 15.2845 5.32122 15.2606 5.44581C14.4408 9.65498 11.636 11.1091 8.05379 11.1091H6.22989C5.7918 11.1091 5.42265 11.4272 5.35438 11.8593L4.42056 17.7817L4.15612 19.4605C4.14559 19.527 4.14961 19.5951 4.16791 19.66C4.18621 19.7249 4.21836 19.7851 4.26213 19.8363C4.30591 19.8876 4.36028 19.9288 4.42149 19.957C4.48271 19.9853 4.54932 19.9999 4.61674 19.9999H7.85165C8.23472 19.9999 8.56014 19.7216 8.62045 19.3438L8.65226 19.1795L9.26133 15.3143L9.30044 15.1022C9.36008 14.7231 9.68616 14.4447 10.0692 14.4447H10.553C13.6872 14.4447 16.1407 13.1722 16.8578 9.48995C17.1574 7.9517 17.0023 6.66727 16.2097 5.76394C15.9584 5.4845 15.6584 5.25317 15.3242 5.0813Z" fill="#179BD7"/>
<path d="M14.4667 4.73932C14.205 4.6636 13.9387 4.6045 13.6694 4.56237C13.1375 4.48061 12.5998 4.44139 12.0616 4.44506H7.189C7.00357 4.44492 6.8242 4.51112 6.68332 4.6317C6.54244 4.75228 6.44935 4.91928 6.42087 5.10251L5.38432 11.6678L5.35449 11.8593C5.38678 11.6503 5.49281 11.4598 5.6534 11.3222C5.81398 11.1846 6.01851 11.109 6.22999 11.1091H8.0539C11.6361 11.1091 14.4409 9.65433 15.2607 5.44582C15.2852 5.32122 15.3058 5.19994 15.3243 5.08131C15.108 4.96786 14.8825 4.87275 14.6503 4.79698C14.5894 4.77678 14.5282 4.75756 14.4667 4.73932Z" fill="#222D65"/>
<path d="M6.42075 5.10256C6.44899 4.91927 6.54203 4.75219 6.68298 4.63168C6.82393 4.51116 7.00344 4.44519 7.18888 4.44577H12.0615C12.6387 4.44577 13.1776 4.48355 13.6693 4.56308C14.0021 4.61538 14.3303 4.6936 14.6509 4.79703C14.8928 4.87722 15.1174 4.972 15.3249 5.08135C15.5688 3.52586 15.3229 2.46678 14.4819 1.50777C13.5547 0.452 11.8812 0 9.73983 0H3.52318C3.08576 0 2.71263 0.318123 2.64503 0.750903L0.05564 17.1641C0.043579 17.2403 0.0481678 17.3182 0.0690907 17.3924C0.0900135 17.4667 0.126774 17.5355 0.176843 17.5942C0.226912 17.6529 0.289102 17.7001 0.359134 17.7325C0.429167 17.7648 0.50538 17.7816 0.582531 17.7818H4.42055L5.3842 11.6678L6.42075 5.10256Z" fill="#253B80"/>
</svg>
