<svg width="16" height="16" viewBox="0 0 16 16" fill="none" xmlns="http://www.w3.org/2000/svg">
<rect width="16" height="16" rx="8" fill="#5130DD"/>
<g clip-path="url(#clip0_1264_5002)">
<path d="M9.88571 9.55224L8.47138 10.9666C8.34637 11.0914 8.1769 11.1616 8.00021 11.1616C7.82351 11.1616 7.65405 11.0914 7.52904 10.9666L6.11438 9.55224C5.74145 9.17929 5.48749 8.70414 5.3846 8.18686C5.28172 7.66958 5.33454 7.13341 5.53638 6.64615C5.73821 6.15888 6.08001 5.74242 6.51854 5.4494C6.95706 5.15639 7.47263 5 8.00004 5C8.52745 5 9.04302 5.15639 9.48155 5.4494C9.92008 5.74242 10.2619 6.15888 10.4637 6.64615C10.6655 7.13341 10.7184 7.66958 10.6155 8.18686C10.5126 8.70414 10.2586 9.17929 9.88571 9.55224Z" fill="white" stroke="white" stroke-width="1.5" stroke-linecap="round" stroke-linejoin="round"/>
<path d="M8 8.66675C8.55228 8.66675 9 8.21903 9 7.66675C9 7.11446 8.55228 6.66675 8 6.66675C7.44772 6.66675 7 7.11446 7 7.66675C7 8.21903 7.44772 8.66675 8 8.66675Z" fill="#5130DD"/>
</g>
<defs>
<clipPath id="clip0_1264_5002">
<rect width="8" height="8" fill="white" transform="translate(4 4)"/>
</clipPath>
</defs>
</svg>
