<svg width="25" height="25" viewBox="0 0 25 25" fill="none" xmlns="http://www.w3.org/2000/svg">
<path d="M22.1 12.5C22.1 6.99 17.61 2.5 12.1 2.5C6.58998 2.5 2.09998 6.99 2.09998 12.5C2.09998 15.4 3.34998 18.01 5.32998 19.84C5.32998 19.85 5.32998 19.85 5.31998 19.86C5.41998 19.96 5.53998 20.04 5.63998 20.13C5.69998 20.18 5.74998 20.23 5.80998 20.27C5.98998 20.42 6.18998 20.56 6.37998 20.7C6.44998 20.75 6.50998 20.79 6.57998 20.84C6.76998 20.97 6.96998 21.09 7.17998 21.2C7.24998 21.24 7.32998 21.29 7.39998 21.33C7.59998 21.44 7.80998 21.54 8.02998 21.63C8.10998 21.67 8.18998 21.71 8.26998 21.74C8.48998 21.83 8.70998 21.91 8.92998 21.98C9.00998 22.01 9.08998 22.04 9.16998 22.06C9.40998 22.13 9.64998 22.19 9.88998 22.25C9.95998 22.27 10.03 22.29 10.11 22.3C10.39 22.36 10.67 22.4 10.96 22.43C11 22.43 11.04 22.44 11.08 22.45C11.42 22.48 11.76 22.5 12.1 22.5C12.44 22.5 12.78 22.48 13.11 22.45C13.15 22.45 13.19 22.44 13.23 22.43C13.52 22.4 13.8 22.36 14.08 22.3C14.15 22.29 14.22 22.26 14.3 22.25C14.54 22.19 14.79 22.14 15.02 22.06C15.1 22.03 15.18 22 15.26 21.98C15.48 21.9 15.71 21.83 15.92 21.74C16 21.71 16.08 21.67 16.16 21.63C16.37 21.54 16.58 21.44 16.79 21.33C16.87 21.29 16.94 21.24 17.01 21.2C17.21 21.08 17.41 20.97 17.61 20.84C17.68 20.8 17.74 20.75 17.81 20.7C18.01 20.56 18.2 20.42 18.38 20.27C18.44 20.22 18.49 20.17 18.55 20.13C18.66 20.04 18.77 19.95 18.87 19.86C18.87 19.85 18.87 19.85 18.86 19.84C20.85 18.01 22.1 15.4 22.1 12.5ZM17.04 17.47C14.33 15.65 9.88998 15.65 7.15998 17.47C6.71998 17.76 6.35998 18.1 6.05998 18.47C4.53998 16.93 3.59998 14.82 3.59998 12.5C3.59998 7.81 7.40998 4 12.1 4C16.79 4 20.6 7.81 20.6 12.5C20.6 14.82 19.66 16.93 18.14 18.47C17.85 18.1 17.48 17.76 17.04 17.47Z" fill="#5130DD"/>
<path d="M12.1 7.43018C10.03 7.43018 8.34998 9.11018 8.34998 11.1802C8.34998 13.2102 9.93998 14.8602 12.05 14.9202C12.08 14.9202 12.12 14.9202 12.14 14.9202C12.16 14.9202 12.19 14.9202 12.21 14.9202C12.22 14.9202 12.23 14.9202 12.23 14.9202C14.25 14.8502 15.84 13.2102 15.85 11.1802C15.85 9.11018 14.17 7.43018 12.1 7.43018Z" fill="#5130DD"/>
</svg>
