<svg width="25" height="25" viewBox="0 0 25 25" fill="none" xmlns="http://www.w3.org/2000/svg">
<path d="M12.2198 13.28C12.1498 13.27 12.0598 13.27 11.9798 13.28C10.2198 13.22 8.81982 11.78 8.81982 10.01C8.81982 8.19998 10.2798 6.72998 12.0998 6.72998C13.9098 6.72998 15.3798 8.19998 15.3798 10.01C15.3698 11.78 13.9798 13.22 12.2198 13.28Z" stroke="#9CA3AF" stroke-width="1.5" stroke-linecap="round" stroke-linejoin="round"/>
<path d="M18.8399 19.8801C17.0599 21.5101 14.6999 22.5001 12.0999 22.5001C9.49986 22.5001 7.13986 21.5101 5.35986 19.8801C5.45986 18.9401 6.05986 18.0201 7.12986 17.3001C9.86986 15.4801 14.3499 15.4801 17.0699 17.3001C18.1399 18.0201 18.7399 18.9401 18.8399 19.8801Z" stroke="#9CA3AF" stroke-width="1.5" stroke-linecap="round" stroke-linejoin="round"/>
<path d="M12.0999 22.5C17.6227 22.5 22.0999 18.0228 22.0999 12.5C22.0999 6.97715 17.6227 2.5 12.0999 2.5C6.57701 2.5 2.09985 6.97715 2.09985 12.5C2.09985 18.0228 6.57701 22.5 12.0999 22.5Z" stroke="#9CA3AF" stroke-width="1.5" stroke-linecap="round" stroke-linejoin="round"/>
</svg>
