<svg width="17" height="16" viewBox="0 0 17 16" fill="none" xmlns="http://www.w3.org/2000/svg">
<path d="M5.08333 4.33333H5.09M12.4167 4.33333H12.4233M5.08333 11.6667H5.09M9.41667 8.66667H9.42333M12.4167 11.6667H12.4233M12.0833 14H14.75V11.3333M10.0833 11V14M14.75 9.33333H11.75M11.15 6.66667H13.6833C14.0567 6.66667 14.2434 6.66667 14.386 6.594C14.5114 6.53009 14.6134 6.4281 14.6773 6.30266C14.75 6.16005 14.75 5.97337 14.75 5.6V3.06667C14.75 2.6933 14.75 2.50661 14.6773 2.36401C14.6134 2.23856 14.5114 2.13658 14.386 2.07266C14.2434 2 14.0567 2 13.6833 2H11.15C10.7766 2 10.5899 2 10.4473 2.07266C10.3219 2.13658 10.2199 2.23856 10.156 2.36401C10.0833 2.50661 10.0833 2.6933 10.0833 3.06667V5.6C10.0833 5.97337 10.0833 6.16005 10.156 6.30266C10.2199 6.4281 10.3219 6.53009 10.4473 6.594C10.5899 6.66667 10.7766 6.66667 11.15 6.66667ZM3.81667 6.66667H6.35C6.72337 6.66667 6.91005 6.66667 7.05266 6.594C7.1781 6.53009 7.28009 6.4281 7.344 6.30266C7.41667 6.16005 7.41667 5.97337 7.41667 5.6V3.06667C7.41667 2.6933 7.41667 2.50661 7.344 2.36401C7.28009 2.23856 7.1781 2.13658 7.05266 2.07266C6.91005 2 6.72337 2 6.35 2H3.81667C3.4433 2 3.25661 2 3.11401 2.07266C2.98856 2.13658 2.88658 2.23856 2.82266 2.36401C2.75 2.50661 2.75 2.6933 2.75 3.06667V5.6C2.75 5.97337 2.75 6.16005 2.82266 6.30266C2.88658 6.4281 2.98856 6.53009 3.11401 6.594C3.25661 6.66667 3.4433 6.66667 3.81667 6.66667ZM3.81667 14H6.35C6.72337 14 6.91005 14 7.05266 13.9273C7.1781 13.8634 7.28009 13.7614 7.344 13.636C7.41667 13.4934 7.41667 13.3067 7.41667 12.9333V10.4C7.41667 10.0266 7.41667 9.83995 7.344 9.69734C7.28009 9.5719 7.1781 9.46991 7.05266 9.406C6.91005 9.33333 6.72337 9.33333 6.35 9.33333H3.81667C3.4433 9.33333 3.25661 9.33333 3.11401 9.406C2.98856 9.46991 2.88658 9.5719 2.82266 9.69734C2.75 9.83995 2.75 10.0266 2.75 10.4V12.9333C2.75 13.3067 2.75 13.4934 2.82266 13.636C2.88658 13.7614 2.98856 13.8634 3.11401 13.9273C3.25661 14 3.4433 14 3.81667 14Z" stroke="#5130DD" stroke-linecap="round" stroke-linejoin="round"/>
</svg>
