<svg width="21" height="21" viewBox="0 0 21 21" fill="none" xmlns="http://www.w3.org/2000/svg">
<path fill-rule="evenodd" clip-rule="evenodd" d="M0.700012 9.16993C0.700012 4.38166 4.54035 0.5 9.27765 0.5C11.5526 0.5 13.7343 1.41344 15.343 3.03936C16.9516 4.66529 17.8553 6.87052 17.8553 9.16993C17.8553 13.9582 14.015 17.8399 9.27765 17.8399C4.54035 17.8399 0.700012 13.9582 0.700012 9.16993ZM17.7134 16.1543L20.268 18.2164H20.3124C20.8292 18.7388 20.8292 19.5858 20.3124 20.1082C19.7955 20.6306 18.9576 20.6306 18.4407 20.1082L16.3207 17.6785C16.1203 17.4766 16.0076 17.2024 16.0076 16.9164C16.0076 16.6304 16.1203 16.3562 16.3207 16.1543C16.7072 15.7704 17.3268 15.7704 17.7134 16.1543Z" fill="#5130DD"/>
</svg>
