<svg width="17" height="16" viewBox="0 0 17 16" fill="none" xmlns="http://www.w3.org/2000/svg">
<path d="M4.75 10C5.85457 10 6.75 9.10457 6.75 8C6.75 6.89543 5.85457 6 4.75 6C3.64543 6 2.75 6.89543 2.75 8C2.75 9.10457 3.64543 10 4.75 10Z" stroke="#5130DD" stroke-width="1.5" stroke-linecap="round" stroke-linejoin="round"/>
<path d="M12.75 6C13.8546 6 14.75 5.10457 14.75 4C14.75 2.89543 13.8546 2 12.75 2C11.6454 2 10.75 2.89543 10.75 4C10.75 5.10457 11.6454 6 12.75 6Z" stroke="#5130DD" stroke-width="1.5" stroke-linecap="round" stroke-linejoin="round"/>
<path d="M12.75 14C13.8546 14 14.75 13.1046 14.75 12C14.75 10.8954 13.8546 10 12.75 10C11.6454 10 10.75 10.8954 10.75 12C10.75 13.1046 11.6454 14 12.75 14Z" stroke="#5130DD" stroke-width="1.5" stroke-linecap="round" stroke-linejoin="round"/>
<path d="M6.55 8.8667L10.95 11.1334M6.55 7.13337L10.95 4.8667L6.55 7.13337Z" stroke="#5130DD" stroke-width="1.5" stroke-linecap="round" stroke-linejoin="round"/>
</svg>
