<svg width="18" height="20" viewBox="0 0 18 20" fill="none" xmlns="http://www.w3.org/2000/svg">
<path d="M5 8L3 8C2.46957 8 1.96086 8.21071 1.58579 8.58579C1.21071 8.96086 1 9.46957 1 10L1 17C1 17.5304 1.21071 18.0391 1.58579 18.4142C1.96086 18.7893 2.46957 19 3 19L15 19C15.5304 19 16.0391 18.7893 16.4142 18.4142C16.7893 18.0391 17 17.5304 17 17L17 10C17 9.46957 16.7893 8.96086 16.4142 8.58579C16.0391 8.21071 15.5304 8 15 8L13 8" stroke="#111827" stroke-width="1.5" stroke-linecap="round" stroke-linejoin="round"/>
<path d="M9 15L9 1M9 1L6 4M9 1L12 4" stroke="#111827" stroke-width="1.5" stroke-linecap="round" stroke-linejoin="round"/>
</svg>
