<svg width="25" height="25" viewBox="0 0 25 25" fill="none" xmlns="http://www.w3.org/2000/svg">
<path d="M19.7998 13C19.7998 11.62 20.9198 10.5 22.2998 10.5V9.5C22.2998 5.5 21.2998 4.5 17.2998 4.5H7.2998C3.2998 4.5 2.2998 5.5 2.2998 9.5V10C3.6798 10 4.7998 11.12 4.7998 12.5C4.7998 13.88 3.6798 15 2.2998 15V15.5C2.2998 19.5 3.2998 20.5 7.2998 20.5H17.2998C21.2998 20.5 22.2998 19.5 22.2998 15.5C20.9198 15.5 19.7998 14.38 19.7998 13Z" stroke="#9CA3AF" stroke-width="1.5" stroke-linecap="round" stroke-linejoin="round"/>
<path d="M10.2998 4.5L10.2998 20.5" stroke="#9CA3AF" stroke-width="1.5" stroke-linecap="round" stroke-linejoin="round" stroke-dasharray="5 5"/>
</svg>
