<svg width="25" height="25" viewBox="0 0 25 25" fill="none" xmlns="http://www.w3.org/2000/svg">
<path d="M22.2998 11.25C22.7098 11.25 23.0498 10.91 23.0498 10.5V9.5C23.0498 5.09 21.7098 3.75 17.2998 3.75H11.0498V6C11.0498 6.41 10.7098 6.75 10.2998 6.75C9.8898 6.75 9.5498 6.41 9.5498 6V3.75H7.2998C2.8898 3.75 1.5498 5.09 1.5498 9.5V10C1.5498 10.41 1.8898 10.75 2.2998 10.75C3.2598 10.75 4.0498 11.54 4.0498 12.5C4.0498 13.46 3.2598 14.25 2.2998 14.25C1.8898 14.25 1.5498 14.59 1.5498 15V15.5C1.5498 19.91 2.8898 21.25 7.2998 21.25H9.5498V19C9.5498 18.59 9.8898 18.25 10.2998 18.25C10.7098 18.25 11.0498 18.59 11.0498 19V21.25H17.2998C21.7098 21.25 23.0498 19.91 23.0498 15.5C23.0498 15.09 22.7098 14.75 22.2998 14.75C21.3398 14.75 20.5498 13.96 20.5498 13C20.5498 12.04 21.3398 11.25 22.2998 11.25ZM11.0498 14.67C11.0498 15.08 10.7098 15.42 10.2998 15.42C9.8898 15.42 9.5498 15.08 9.5498 14.67V10.33C9.5498 9.92 9.8898 9.58 10.2998 9.58C10.7098 9.58 11.0498 9.92 11.0498 10.33V14.67Z" fill="#5130DD"/>
</svg>
