<svg width="17" height="16" viewBox="0 0 17 16" fill="none" xmlns="http://www.w3.org/2000/svg">
<path d="M6.24992 7.33333C7.72268 7.33333 8.91659 6.13943 8.91659 4.66667C8.91659 3.19391 7.72268 2 6.24992 2C4.77716 2 3.58325 3.19391 3.58325 4.66667C3.58325 6.13943 4.77716 7.33333 6.24992 7.33333Z" stroke="white" stroke-width="1.5" stroke-linecap="round" stroke-linejoin="round"/>
<path d="M2.25 14V12.6667C2.25 11.9594 2.53095 11.2811 3.03105 10.781C3.53115 10.281 4.20942 10 4.91667 10H7.58333C8.29058 10 8.96885 10.281 9.46895 10.781C9.96905 11.2811 10.25 11.9594 10.25 12.6667V14" stroke="white" stroke-width="1.5" stroke-linecap="round" stroke-linejoin="round"/>
<path d="M10.9167 2.08667C11.4904 2.23354 11.9988 2.56714 12.3618 3.03488C12.7249 3.50262 12.922 4.07789 12.922 4.67C12.922 5.26212 12.7249 5.83739 12.3618 6.30513C11.9988 6.77287 11.4904 7.10647 10.9167 7.25334" stroke="white" stroke-width="1.5" stroke-linecap="round" stroke-linejoin="round"/>
<path d="M14.25 14.0001V12.6668C14.2466 12.0782 14.0486 11.5073 13.6868 11.043C13.3251 10.5788 12.8199 10.2472 12.25 10.1001" stroke="white" stroke-width="1.5" stroke-linecap="round" stroke-linejoin="round"/>
</svg>
