<svg width="81" height="16" viewBox="0 0 81 16" fill="none" xmlns="http://www.w3.org/2000/svg">
<g clip-path="url(#clip0_560_4017)">
<path d="M25.3962 2.01855C22.6299 2.01855 20.1577 3.37739 20.1577 5.88793C20.1577 8.76705 24.5422 8.96591 24.5422 10.4123C24.5422 11.0213 23.8057 11.5665 22.5479 11.5665C20.7627 11.5665 19.4285 10.8047 19.4285 10.8047L18.8576 13.3381C18.8576 13.3381 20.3946 13.9816 22.4352 13.9816C25.4597 13.9816 27.8397 12.556 27.8397 10.0026C27.8397 6.96026 23.4369 6.76731 23.4369 5.42482C23.4369 4.94774 24.0415 4.42501 25.2958 4.42501C26.711 4.42501 27.8656 4.97902 27.8656 4.97902L28.4243 2.53216C28.4243 2.53216 27.168 2.01855 25.3962 2.01855ZM0.0865164 2.20322L0.0195312 2.57256C0.0195312 2.57256 1.18335 2.77441 2.23156 3.17706C3.58122 3.63878 3.67737 3.90757 3.90467 4.74241L6.3816 13.7912H9.70193L14.8172 2.20322H11.5044L8.2176 10.0819L6.87637 3.40357C6.75337 2.63923 6.13033 2.20322 5.36769 2.20322H0.0865164ZM16.1493 2.20322L13.5505 13.7912H16.7095L19.2991 2.20322H16.1493ZM33.7679 2.20322C33.0061 2.20322 32.6025 2.5897 32.3064 3.26507L27.6783 13.7912H30.991L31.632 12.0368H35.6678L36.0575 13.7912H38.9805L36.4305 2.20322H33.7679ZM34.1987 5.33393L35.1806 9.68229H32.55L34.1987 5.33393Z" fill="#1434CB"/>
</g>
<g clip-path="url(#clip1_560_4017)">
<path fill-rule="evenodd" clip-rule="evenodd" d="M64.3875 14.269H71.3462V1.70801H64.3875V14.269Z" fill="#FF5F00"/>
<path fill-rule="evenodd" clip-rule="evenodd" d="M64.8295 7.98847C64.8295 5.44015 66.0173 3.17054 67.867 1.70798C66.5141 0.63819 64.8074 0 62.9521 0C58.5602 0 55 3.57662 55 7.98847C55 12.4003 58.5602 15.9769 62.9521 15.9769C64.8074 15.9769 66.5141 15.3388 67.867 14.269C66.0173 12.8062 64.8295 10.5368 64.8295 7.98847Z" fill="#EB001B"/>
<path fill-rule="evenodd" clip-rule="evenodd" d="M80.4856 12.9387V12.6287H80.405L80.3124 12.8419L80.2197 12.6287H80.139V12.9387H80.1958V12.7048L80.2828 12.9065H80.3418L80.4289 12.7043V12.9387H80.4856ZM79.9751 12.9387V12.6815H80.0785V12.6291H79.8156V12.6815H79.9188V12.9387H79.9751ZM80.7339 7.98848C80.7339 12.4003 77.1735 15.977 72.7818 15.977C70.9266 15.977 69.2196 15.3388 67.8669 14.269C69.7166 12.8064 70.9045 10.5368 70.9045 7.98848C70.9045 5.44037 69.7166 3.17076 67.8669 1.70798C69.2196 0.63819 70.9266 0 72.7818 0C77.1735 0 80.7339 3.57662 80.7339 7.98848Z" fill="#F79E1B"/>
</g>
<defs>
<clipPath id="clip0_560_4017">
<rect width="39" height="12" fill="white" transform="translate(0 2)"/>
</clipPath>
<clipPath id="clip1_560_4017">
<rect width="26" height="16" fill="white" transform="translate(55)"/>
</clipPath>
</defs>
</svg>
